<svg version="1.2" xmlns="http://www.w3.org/2000/svg" viewBox="0 0 1400 1080" width="1400" height="1080">
	<title>Proyecto nuevo</title>
	<style>
		.s0 { opacity: .1;fill: #2a94f4 } 
		.s1 { fill: #ffbe55 } 
		.s2 { fill: #2a94f4 } 
		.s3 { fill: #fcd2b1 } 
		.s4 { fill: #ffe3ca } 
		.s5 { fill: #0e538c } 
		.s6 { fill: #f9f3ed } 
		.s7 { fill: #d3d3d3 } 
		.s8 { fill: #f7f7f7 } 
		.s9 { fill: #cce9ff } 
		.s10 { opacity: .1;fill: #000000 } 
	</style>
	<path id="Layer" class="s0" d="m963 1006.8c28.1-13.3 475.7-7 404.5-333-71.2-326-526-287.2-636.8-513.8-110.8-226.5-408.5-129.4-576.8 38.8-171 171-336.6 945 646.9 596.1 382.7-135.8 143.3 200 143.3 200"/>
	<path id="Layer" class="s1" d="m708.9 58c-53.6-8.9-106.7 18.9-129.6 68.2-6.7 14.4-12.5 31.2-16.8 50.7-22.3 101.6-34.6 170.9-127.5 240.3-92.9 69.4 110.5 284.6 214.4 195.5 103.9-89.1 279.7 22.9 319.4-43 39.6-65.9-32-137.7 2.5-192.2 34.5-54.5 67-255.1-27.1-322-94.2-66.9-212.8-81.7-235.3 2.5z"/>
	<path id="Layer" class="s2" d="m681.2 479.1c0 0-225.2-20.4-180.6 514.4h490.5c0 0 46.4-503.3-180.7-514.4z"/>
	<path id="Layer" class="s3" d="m696.3 323.7c0 0-17.3 170.3-14.9 205 2.4 34.7 107 64.4 126.3 14.9 11.7-30-19.3-219.8-19.3-219.8h-92.1z"/>
	<path id="Layer" class="s4" d="m892.4 112.6c0 0 126.3 291.3-64.5 318.1-49.3 6.9-120.5-47.6-131.6-87.2-9.8-34.7-26.4-8.1-39.1-37.7-17.3-40.4-5.4-156.8 31.7-81.9 27.3 55.1 84.2-102.4 138.7-77.6 54.5 24.8 64.8-33.7 64.8-33.7z"/>
	<path id="Layer" class="s5" d="m604.1 1069.5l-179.1-565.7c0 0-143.5 66-229.7 121.9 0 0 52.7 144.6 91.8 223.8 39.1 79.2 59.3 104.8 124.2 138 65 33.2 192.8 82 192.8 82z"/>
	<path id="Layer" class="s5" d="m604.1 1069.5l-179.1-565.7c0 0 155.3-28.6 258-32.5 0 0 40.1 148.6 53.7 235.9 13.6 87.2 11.8 119.8-22.2 184.4-33.9 64.4-110.4 177.9-110.4 177.9z"/>
	<path id="Layer" class="s6" d="m220.3 634.1c14.6 39.3 54.5 144.1 85.2 206.3 36.9 74.8 54.4 97.7 115.2 128.9 50.1 25.6 139.8 61.3 175.5 75.2l-165-521.1c-17.7 8.3-132.5 62.2-210.9 110.7z"/>
	<path id="Layer" class="s6" d="m696.4 882c31.8-60.5 32.9-89.3 20-171.7-10.6-68.5-38.4-177.2-49-217.8-92.1 5.5-217 27.4-236.2 30.9l165 521.1c21.2-31.9 74-112.7 100.2-162.5z"/>
	<path id="Layer" class="s5" d="m235.3 639.3c17.3 45.9 53 138.7 81.2 195.7 35.4 71.7 50.9 93.2 109.8 123.4 45.7 23.4 124.9 55.3 165.1 71.1l-156.4-494.3c-18 8.4-123.7 58.2-199.7 104.1z"/>
	<path id="Layer" class="s5" d="m685.6 876.3c30.8-58.6 31.1-85 18.8-164.1-9.8-62.8-33.9-159.3-46.2-206.7-88.6 6.2-203.6 26.3-223.2 29.8l156.5 494.2c23.7-36.1 70.2-107.8 94.1-153.2z"/>
	<path id="Layer" class="s7" d="m814.6 1042.1l313.3 34.3c9.7 1.1 18.4-5.9 19.4-15.6l59.6-544.2c1.1-9.7-5.9-18.4-15.6-19.4l-330.8-36.3-61.6 561.7c-1 9.7 6 18.4 15.7 19.5z"/>
	<path id="Layer" class="s8" d="m1184.7 496.5l-11.7-1.3-312.4-34.2-11.7-1.3c-13.4-1.5-25.4 8.2-26.9 21.6l-58.2 530.8c-1.5 13.4 8.2 25.4 21.6 26.9l299.9 32.9c13.4 1.5 25.4-8.2 26.9-21.6l26.6-242.6 11.7 1.3c13.4 1.5 25.4-8.2 26.9-21.6l28.9-264c1.4-13.5-8.2-25.5-21.6-26.9z"/>
	<path id="Layer" class="s9" d="m647.8 794.9v-88.9c0-28.4 26.2-49.6 47.4-49.6h51c35.7 0 54.7 21.1 54.7 49.6v88.9h43.7v-88.9c0-52.5-38.6-93.3-98.4-93.3h-51c-45.2 0-91.1 40.8-91.1 93.3v88.9z"/>
	<path id="Layer" class="s1" d="m866.4 1022.3c0 24.1-14.6 42.3-38.6 42.3h-199.7c-24.1 0-45.9-18.2-45.9-42.3v-214.3c0-24.1 21.9-27.7 45.9-27.7h199.7c24.1 0 38.6 3.6 38.6 27.7z"/>
	<path id="Layer" class="s1" d="m763.6 891.9c0-20.4-16-37.2-36.4-37.2-20.4 0-35.7 16.8-35.7 37.2 0 14.6 7.3 26.2 21.9 32.8v68.5c0 9.5 5.1 16.8 14.6 16.8 9.5 0 14.6-7.3 14.6-16.8v-68.5c14.5-6.6 21-18.3 21-32.8z"/>
	<path id="Layer" class="s10" d="m763.6 891.9c0-20.4-16-37.2-36.4-37.2-20.4 0-35.7 16.8-35.7 37.2 0 14.6 7.3 26.2 21.9 32.8v68.5c0 9.5 5.1 16.8 14.6 16.8 9.5 0 14.6-7.3 14.6-16.8v-68.5c14.5-6.6 21-18.3 21-32.8z"/>
	<path id="Layer" class="s4" d="m534.4 987.2l58.6-15.2c0 0 7.1-27.9 20.5-38.5 13.4-10.6 29.4-18.6 36.6-17.7 7.1 0.9-8 20.5-15.2 29.4-7.2 8.9 3.6 11.6 32.1-8 28.5-19.6 52.6-25.9 59.7 14.2 7.1 40.2-33.9 58.9-83.8 58.9-49.9 0-89.1 28.1-89.1 28.1 0 0-74.4-6.6-19.4-51.2z"/>
	<path id="Layer" class="s2" d="m287.2 849.5c0 0-21.9 1.2-41.7 40.8-19.8 39.6 5.5 229.1 350.8 154.2l-22.7-71.8c-0.1 0-266.7-80.6-286.4-123.2z"/>
	<path id="Layer" class="s4" d="m923.9 987.2l-58.6-15.2c0 0-7.1-27.9-20.5-38.5-13.4-10.6-29.4-18.6-36.6-17.7-7.1 0.9 8 20.5 15.2 29.4 7.2 8.9-3.6 11.6-32.1-8-28.5-19.6-52.6-25.9-59.7 14.2-7.1 40.2 33.9 58.9 83.8 58.9 49.9 0 89.1 28.1 89.1 28.1 0 0 74.4-6.6 19.4-51.2z"/>
	<path id="Layer" class="s2" d="m1170.6 849.5c0 0 21.9 1.2 41.7 40.8 19.8 39.6-5.5 229.1-350.8 154.2l22.7-71.8c0.1 0 266.6-80.6 286.4-123.2z"/>
</svg>